#!OML:ASF F:\twosubjects\two\Thursday\Session 1\Rory.ASF
:FULLY-SPECIFIED
:DEGREES
736
root 9.64421 18.6896 12.1939 -167.223 -24.8849 -186.558
lowerback 3.84065 1.35148 2.94787
upperback 4.6859 1.43689 3.65866
thorax 2.66158 0.595468 2.09101
lowerneck -8.01972 -5.28551 -5.9313
upperneck 30.9453 -8.99292 -0.778884
head 11.6405 -5.59641 -0.52739
rclavicle 3.02153e-014 -5.08889e-014
rhumerus -25.1825 -67.7204 -38.7809
rradius 11.2401
rwrist 117.717
rhand -31.3866 35.3137
rfingers 7.12502
rthumb -4.65646 5.38483
lclavicle 3.02153e-014 -5.08889e-014
lhumerus -30.4219 -12.3461 94.3359
lradius 48.4195
lwrist -17.8236
lhand -10.7875 26.6391
lfingers 7.12502
lthumb 15.2252 56.0589
rfemur -10.81 6.39784 10.8855
rtibia 27.4412
rfoot -20.4061 -27.2241
rtoes -4.50879
lfemur -24.5249 3.81741 -21.7286
ltibia 21.005
lfoot -2.84853 9.37981
ltoes 17.5272
737
root 9.57919 18.6896 12.177 -167.365 -26.1109 -186.964
lowerback 4.02882 1.45777 3.09542
upperback 4.88279 1.58018 3.49789
thorax 2.76788 0.673606 1.83989
lowerneck -8.20531 -5.0415 -4.61969
upperneck 30.7353 -8.45557 -1.72504
head 11.4587 -5.29177 -1.01013
rclavicle 2.8625e-014 -3.18055e-015
rhumerus -33.8412 -72.1655 -29.6305
rradius 11.3963
rwrist 120.87
rhand -31.8849 34.9537
rfingers 7.12502
rthumb -5.13757 5.03601
lclavicle 2.8625e-014 -3.18055e-015
lhumerus -30.4805 -13.5967 94.2704
lradius 48.4226
lwrist -17.3806
lhand -10.5514 25.9982
lfingers 7.12502
lthumb 15.4526 55.4005
rfemur -9.89542 6.11805 10.7636
rtibia 27.511
rfoot -21.3962 -27.8497
rtoes -2.85117
lfemur -24.1806 3.62739 -22.1959
ltibia 21.2783
lfoot -2.93369 8.12189
ltoes 17.1126
738
root 9.51409 18.6858 12.1682 -167.585 -26.943 -187.075
lowerback 4.5045 1.43864 3.37246
upperback 4.99592 1.56256 3.51273
thorax 2.62897 0.664744 1.69172
lowerneck -8.68755 -4.5269 -4.01614
upperneck 30.9886 -7.49623 -2.57696
head 11.5715 -4.88808 -1.32875
rclavicle 4.77083e-015 1.31993e-013
rhumerus -41.5125 -74.7319 -21.402
rradius 11.5051
rwrist 122.934
rhand -32.1554 35.0357
rfingers 7.12502
rthumb -5.39876 5.12451
lclavicle 4.77083e-015 1.31993e-013
lhumerus -30.7925 -13.9787 94.174
lradius 48.6599
lwrist -17.2999
lhand -10.2958 25.5217
lfingers 7.12502
lthumb 15.6987 54.9049
rfemur -9.22795 6.13392 10.7955
rtibia 27.5594
rfoot -22.054 -28.3757
rtoes -1.9647
lfemur -23.9495 3.70276 -22.4309
ltibia 21.6344
lfoot -3.24087 7.17507
ltoes 17.0326
739
root 9.4474 18.6778 12.1737 -167.527 -27.5177 -187.213
lowerback 4.96297 1.4241 3.63811
upperback 4.93435 1.57873 3.4787
thorax 2.31875 0.677736 1.4962
lowerneck -9.06304 -3.9769 -3.73148
upperneck 31.2572 -6.53853 -3.12655
head 11.7129 -4.4933 -1.48385
rclavicle 7.23576e-014 6.67916e-014
rhumerus -49.2886 -76.1361 -13.1325
rradius 11.5648
rwrist 123.816
rhand -32.4836 35.5063
rfingers 7.12502
rthumb -5.71569 5.60343
lclavicle 7.23576e-014 6.67916e-014
lhumerus -31.2055 -14.0362 94.008
lradius 48.8579
lwrist -17.4416
lhand -10.2935 25.2062
lfingers 7.12502
lthumb 15.701 54.5893
rfemur -9.03658 6.19265 10.6458
rtibia 27.6209
rfoot -21.9886 -29.1158
rtoes -3.59509
lfemur -24.0702 3.76578 -22.7586
ltibia 22.0866
lfoot -3.94732 6.87713
ltoes 16.1774
740
root 9.38314 18.6684 12.1813 -167.352 -28.2291 -187.223
lowerback 5.2161 1.48071 3.80755
upperback 4.86367 1.67234 3.59754
thorax 2.1072 0.722967 1.51445
lowerneck -9.21366 -3.55767 -3.4226
upperneck 31.1115 -5.74903 -3.62182
head 11.6548 -4.14792 -1.61582
rclavicle 2.38542e-014 -1.74931e-014
rhumerus -56.8256 -76.8751 -4.89341
rradius 11.617
rwrist 123.83
rhand -32.624 37.0753
rfingers 7.12502
rthumb -5.85124 7.1761
lclavicle 2.38542e-014 -1.74931e-014
lhumerus -31.3355 -14.1401 94.0008
lradius 48.8892
lwrist -17.5924
lhand -10.5567 25.1086
lfingers 7.12502
lthumb 15.4475 54.5114
rfemur -9.04467 5.95506 10.6242
rtibia 27.7768
rfoot -21.6825 -29.8114
rtoes -5.86328
lfemur -24.4849 4.23729 -23.0761
ltibia 22.5882
lfoot -4.42435 5.97017
ltoes 15.1989
